<mxfile host="app.diagrams.net" modified="2021-10-07T13:42:44.958Z" agent="5.0 (Windows NT 10.0; Win64; x64) AppleWebKit/537.36 (KHTML, like Gecko) Chrome/94.0.4606.71 Safari/537.36" etag="gmGZ8qEBCpLnhqEQnAKV" version="15.4.3" type="github">
  <diagram id="FEtA8soinpY8gCQ8ov9e" name="Page-1">
    <mxGraphModel dx="1822" dy="794" grid="1" gridSize="10" guides="1" tooltips="1" connect="1" arrows="1" fold="1" page="0" pageScale="1" pageWidth="827" pageHeight="1169" math="0" shadow="0">
      <root>
        <mxCell id="0" />
        <object label="work load" id="1">
          <mxCell parent="0" />
        </object>
        <mxCell id="Z7xoSQg9jsAGD2zMsVOJ-81" value="100" style="rounded=0;whiteSpace=wrap;html=1;strokeWidth=1;fillColor=none;" parent="1" vertex="1">
          <mxGeometry x="-87" y="550" width="97" height="20" as="geometry" />
        </mxCell>
        <mxCell id="Z7xoSQg9jsAGD2zMsVOJ-93" value="50" style="rounded=0;whiteSpace=wrap;html=1;strokeWidth=1;fillColor=none;" parent="1" vertex="1">
          <mxGeometry x="30" y="550" width="100" height="20" as="geometry" />
        </mxCell>
        <mxCell id="Z7xoSQg9jsAGD2zMsVOJ-104" value="80" style="rounded=0;whiteSpace=wrap;html=1;strokeWidth=1;fillColor=none;" parent="1" vertex="1">
          <mxGeometry x="150" y="550" width="100" height="20" as="geometry" />
        </mxCell>
        <mxCell id="Z7xoSQg9jsAGD2zMsVOJ-105" value="5" style="rounded=0;whiteSpace=wrap;html=1;strokeWidth=1;fillColor=none;perimeterSpacing=1;strokeColor=#FF8000;" parent="1" vertex="1">
          <mxGeometry x="150" y="522" width="100" height="20" as="geometry" />
        </mxCell>
        <mxCell id="Z7xoSQg9jsAGD2zMsVOJ-107" value="" style="endArrow=none;dashed=1;html=1;strokeWidth=2;exitX=1;exitY=0.5;exitDx=0;exitDy=0;fillColor=#fa6800;strokeColor=#C73500;" parent="1" source="Z7xoSQg9jsAGD2zMsVOJ-93" edge="1">
          <mxGeometry width="50" height="50" relative="1" as="geometry">
            <mxPoint x="270" y="670" as="sourcePoint" />
            <mxPoint x="150" y="532" as="targetPoint" />
          </mxGeometry>
        </mxCell>
        <mxCell id="Z7xoSQg9jsAGD2zMsVOJ-115" value="60" style="rounded=0;whiteSpace=wrap;html=1;strokeWidth=1;fillColor=none;" parent="1" vertex="1">
          <mxGeometry x="270" y="550" width="100" height="20" as="geometry" />
        </mxCell>
        <mxCell id="Z7xoSQg9jsAGD2zMsVOJ-119" value="90" style="rounded=0;whiteSpace=wrap;html=1;strokeWidth=1;fillColor=none;" parent="1" vertex="1">
          <mxGeometry x="390" y="550" width="100" height="20" as="geometry" />
        </mxCell>
        <mxCell id="Z7xoSQg9jsAGD2zMsVOJ-132" value="1" style="rounded=0;whiteSpace=wrap;html=1;strokeWidth=1;fillColor=none;" parent="1" vertex="1">
          <mxGeometry x="510" y="550" width="100" height="20" as="geometry" />
        </mxCell>
        <mxCell id="Z7xoSQg9jsAGD2zMsVOJ-150" value="50" style="rounded=0;whiteSpace=wrap;html=1;strokeWidth=1;fillColor=none;" parent="1" vertex="1">
          <mxGeometry x="33" y="370" width="100" height="20" as="geometry" />
        </mxCell>
        <mxCell id="Z7xoSQg9jsAGD2zMsVOJ-154" value="80" style="rounded=0;whiteSpace=wrap;html=1;strokeWidth=1;fillColor=none;" parent="1" vertex="1">
          <mxGeometry x="153" y="370" width="100" height="20" as="geometry" />
        </mxCell>
        <mxCell id="Z7xoSQg9jsAGD2zMsVOJ-155" value="50" style="rounded=0;whiteSpace=wrap;html=1;strokeWidth=1;fillColor=none;perimeterSpacing=1;strokeColor=#FF8000;" parent="1" vertex="1">
          <mxGeometry x="153" y="342" width="100" height="20" as="geometry" />
        </mxCell>
        <mxCell id="Z7xoSQg9jsAGD2zMsVOJ-156" value="" style="endArrow=none;html=1;strokeWidth=2;exitX=1;exitY=0.5;exitDx=0;exitDy=0;fillColor=#fa6800;strokeColor=#C73500;edgeStyle=elbowEdgeStyle;elbow=vertical;" parent="1" source="Z7xoSQg9jsAGD2zMsVOJ-150" edge="1">
          <mxGeometry width="50" height="50" relative="1" as="geometry">
            <mxPoint x="273" y="490" as="sourcePoint" />
            <mxPoint x="153" y="352" as="targetPoint" />
          </mxGeometry>
        </mxCell>
        <mxCell id="Z7xoSQg9jsAGD2zMsVOJ-159" value="60" style="rounded=0;whiteSpace=wrap;html=1;strokeWidth=1;fillColor=none;" parent="1" vertex="1">
          <mxGeometry x="273" y="370" width="100" height="20" as="geometry" />
        </mxCell>
        <mxCell id="Z7xoSQg9jsAGD2zMsVOJ-160" value="80" style="rounded=0;whiteSpace=wrap;html=1;strokeWidth=1;fillColor=none;perimeterSpacing=1;strokeColor=#FF8000;" parent="1" vertex="1">
          <mxGeometry x="273" y="342" width="100" height="20" as="geometry" />
        </mxCell>
        <mxCell id="Z7xoSQg9jsAGD2zMsVOJ-161" value="" style="endArrow=none;html=1;strokeWidth=2;exitX=1;exitY=0.5;exitDx=0;exitDy=0;fillColor=#fa6800;strokeColor=#C73500;edgeStyle=elbowEdgeStyle;elbow=vertical;" parent="1" edge="1">
          <mxGeometry width="50" height="50" relative="1" as="geometry">
            <mxPoint x="253" y="380" as="sourcePoint" />
            <mxPoint x="273" y="352.0000000000002" as="targetPoint" />
          </mxGeometry>
        </mxCell>
        <mxCell id="Z7xoSQg9jsAGD2zMsVOJ-163" value="90" style="rounded=0;whiteSpace=wrap;html=1;strokeWidth=1;fillColor=none;" parent="1" vertex="1">
          <mxGeometry x="393" y="370" width="100" height="20" as="geometry" />
        </mxCell>
        <mxCell id="Z7xoSQg9jsAGD2zMsVOJ-164" value="60" style="rounded=0;whiteSpace=wrap;html=1;strokeWidth=1;fillColor=none;perimeterSpacing=1;strokeColor=#FF8000;" parent="1" vertex="1">
          <mxGeometry x="393" y="342" width="100" height="20" as="geometry" />
        </mxCell>
        <mxCell id="Z7xoSQg9jsAGD2zMsVOJ-165" value="" style="endArrow=none;html=1;strokeWidth=2;exitX=1;exitY=0.5;exitDx=0;exitDy=0;fillColor=#fa6800;strokeColor=#C73500;entryX=0;entryY=0.5;entryDx=0;entryDy=0;edgeStyle=elbowEdgeStyle;elbow=vertical;" parent="1" source="Z7xoSQg9jsAGD2zMsVOJ-159" target="Z7xoSQg9jsAGD2zMsVOJ-164" edge="1">
          <mxGeometry width="50" height="50" relative="1" as="geometry">
            <mxPoint x="293" y="420" as="sourcePoint" />
            <mxPoint x="313" y="392.0000000000002" as="targetPoint" />
          </mxGeometry>
        </mxCell>
        <mxCell id="Z7xoSQg9jsAGD2zMsVOJ-169" value="1" style="rounded=0;whiteSpace=wrap;html=1;strokeWidth=1;fillColor=none;" parent="1" vertex="1">
          <mxGeometry x="513" y="370" width="100" height="20" as="geometry" />
        </mxCell>
        <mxCell id="Z7xoSQg9jsAGD2zMsVOJ-185" value="50" style="rounded=0;whiteSpace=wrap;html=1;strokeWidth=1;fillColor=none;" parent="1" vertex="1">
          <mxGeometry x="33.05000000000001" y="255" width="100" height="20" as="geometry" />
        </mxCell>
        <mxCell id="Z7xoSQg9jsAGD2zMsVOJ-188" value="80" style="rounded=0;whiteSpace=wrap;html=1;strokeWidth=1;fillColor=none;" parent="1" vertex="1">
          <mxGeometry x="153.05" y="255" width="100" height="20" as="geometry" />
        </mxCell>
        <mxCell id="Z7xoSQg9jsAGD2zMsVOJ-189" value="50" style="rounded=0;whiteSpace=wrap;html=1;strokeWidth=1;fillColor=none;perimeterSpacing=1;strokeColor=#FF8000;" parent="1" vertex="1">
          <mxGeometry x="153.05" y="227" width="100" height="20" as="geometry" />
        </mxCell>
        <mxCell id="Z7xoSQg9jsAGD2zMsVOJ-190" value="" style="endArrow=none;html=1;strokeWidth=2;exitX=1;exitY=0.5;exitDx=0;exitDy=0;fillColor=#fa6800;strokeColor=#C73500;edgeStyle=elbowEdgeStyle;elbow=vertical;" parent="1" source="Z7xoSQg9jsAGD2zMsVOJ-185" edge="1">
          <mxGeometry width="50" height="50" relative="1" as="geometry">
            <mxPoint x="273.04999999999995" y="375" as="sourcePoint" />
            <mxPoint x="153.05" y="236.99999999999977" as="targetPoint" />
          </mxGeometry>
        </mxCell>
        <mxCell id="Z7xoSQg9jsAGD2zMsVOJ-193" value="60" style="rounded=0;whiteSpace=wrap;html=1;strokeWidth=1;fillColor=none;" parent="1" vertex="1">
          <mxGeometry x="273.04999999999995" y="255" width="100" height="20" as="geometry" />
        </mxCell>
        <mxCell id="Z7xoSQg9jsAGD2zMsVOJ-194" value="80" style="rounded=0;whiteSpace=wrap;html=1;strokeWidth=1;fillColor=none;perimeterSpacing=1;strokeColor=#FF8000;" parent="1" vertex="1">
          <mxGeometry x="273.04999999999995" y="227" width="100" height="20" as="geometry" />
        </mxCell>
        <mxCell id="Z7xoSQg9jsAGD2zMsVOJ-197" value="90" style="rounded=0;whiteSpace=wrap;html=1;strokeWidth=1;fillColor=none;" parent="1" vertex="1">
          <mxGeometry x="393.04999999999995" y="255" width="100" height="20" as="geometry" />
        </mxCell>
        <mxCell id="Z7xoSQg9jsAGD2zMsVOJ-198" value="80" style="rounded=0;whiteSpace=wrap;html=1;strokeWidth=1;fillColor=none;perimeterSpacing=1;strokeColor=#FF8000;" parent="1" vertex="1">
          <mxGeometry x="392.99999999999994" y="200" width="100" height="20" as="geometry" />
        </mxCell>
        <mxCell id="Z7xoSQg9jsAGD2zMsVOJ-203" value="1" style="rounded=0;whiteSpace=wrap;html=1;strokeWidth=1;fillColor=none;" parent="1" vertex="1">
          <mxGeometry x="513.05" y="255" width="100" height="20" as="geometry" />
        </mxCell>
        <mxCell id="Z7xoSQg9jsAGD2zMsVOJ-204" value="90" style="rounded=0;whiteSpace=wrap;html=1;strokeWidth=1;fillColor=none;perimeterSpacing=1;strokeColor=#FF8000;" parent="1" vertex="1">
          <mxGeometry x="513.05" y="227" width="100" height="20" as="geometry" />
        </mxCell>
        <mxCell id="Z7xoSQg9jsAGD2zMsVOJ-209" value="50" style="rounded=0;whiteSpace=wrap;html=1;strokeWidth=1;fillColor=none;perimeterSpacing=1;strokeColor=#FF8000;" parent="1" vertex="1">
          <mxGeometry x="273.04999999999995" y="200" width="100" height="20" as="geometry" />
        </mxCell>
        <mxCell id="Z7xoSQg9jsAGD2zMsVOJ-211" value="" style="endArrow=none;html=1;strokeWidth=2;fillColor=#fa6800;strokeColor=#C73500;exitX=1;exitY=0.5;exitDx=0;exitDy=0;entryX=0;entryY=0.5;entryDx=0;entryDy=0;edgeStyle=elbowEdgeStyle;elbow=vertical;" parent="1" source="Z7xoSQg9jsAGD2zMsVOJ-189" target="Z7xoSQg9jsAGD2zMsVOJ-209" edge="1">
          <mxGeometry width="50" height="50" relative="1" as="geometry">
            <mxPoint x="263.04999999999995" y="240" as="sourcePoint" />
            <mxPoint x="243.04999999999995" y="195" as="targetPoint" />
          </mxGeometry>
        </mxCell>
        <mxCell id="Z7xoSQg9jsAGD2zMsVOJ-212" value="" style="endArrow=none;html=1;strokeWidth=2;fillColor=#fa6800;strokeColor=#C73500;exitX=1.001;exitY=0.507;exitDx=0;exitDy=0;exitPerimeter=0;entryX=0.012;entryY=0.463;entryDx=0;entryDy=0;entryPerimeter=0;edgeStyle=elbowEdgeStyle;elbow=vertical;" parent="1" source="Z7xoSQg9jsAGD2zMsVOJ-188" target="Z7xoSQg9jsAGD2zMsVOJ-194" edge="1">
          <mxGeometry width="50" height="50" relative="1" as="geometry">
            <mxPoint x="253.04999999999995" y="269" as="sourcePoint" />
            <mxPoint x="263.04999999999995" y="237" as="targetPoint" />
          </mxGeometry>
        </mxCell>
        <mxCell id="PUl2zVGVNQpJpccV3JuQ-2" value="100" style="rounded=0;whiteSpace=wrap;html=1;strokeWidth=1;fillColor=none;" parent="1" vertex="1">
          <mxGeometry x="-86" y="370" width="97" height="20" as="geometry" />
        </mxCell>
        <mxCell id="PUl2zVGVNQpJpccV3JuQ-4" value="100" style="rounded=0;whiteSpace=wrap;html=1;strokeWidth=1;fillColor=none;" parent="1" vertex="1">
          <mxGeometry x="-88" y="255" width="97" height="20" as="geometry" />
        </mxCell>
        <mxCell id="bL0ik9NKwifECW42rk_7-153" value="90" style="rounded=0;whiteSpace=wrap;html=1;strokeWidth=1;strokeColor=#FF8000;" parent="1" vertex="1">
          <mxGeometry x="513" y="341" width="100" height="20" as="geometry" />
        </mxCell>
        <mxCell id="bL0ik9NKwifECW42rk_7-154" value="" style="endArrow=none;html=1;strokeWidth=2;exitX=1;exitY=0.5;exitDx=0;exitDy=0;fillColor=#fa6800;strokeColor=#C73500;entryX=0;entryY=0.5;entryDx=0;entryDy=0;edgeStyle=elbowEdgeStyle;elbow=vertical;" parent="1" source="Z7xoSQg9jsAGD2zMsVOJ-163" target="bL0ik9NKwifECW42rk_7-153" edge="1">
          <mxGeometry width="50" height="50" relative="1" as="geometry">
            <mxPoint x="383" y="390" as="sourcePoint" />
            <mxPoint x="402" y="362" as="targetPoint" />
          </mxGeometry>
        </mxCell>
        <mxCell id="bL0ik9NKwifECW42rk_7-159" value="60" style="rounded=0;whiteSpace=wrap;html=1;strokeWidth=1;fillColor=none;perimeterSpacing=1;strokeColor=#FF8000;" parent="1" vertex="1">
          <mxGeometry x="393.04999999999995" y="228" width="100" height="20" as="geometry" />
        </mxCell>
        <mxCell id="bL0ik9NKwifECW42rk_7-160" value="" style="endArrow=none;html=1;strokeWidth=2;fillColor=#fa6800;strokeColor=#C73500;entryX=1;entryY=0.5;entryDx=0;entryDy=0;exitX=0;exitY=0.5;exitDx=0;exitDy=0;edgeStyle=elbowEdgeStyle;elbow=vertical;" parent="1" source="bL0ik9NKwifECW42rk_7-159" target="Z7xoSQg9jsAGD2zMsVOJ-193" edge="1">
          <mxGeometry width="50" height="50" relative="1" as="geometry">
            <mxPoint x="440" y="312.22" as="sourcePoint" />
            <mxPoint x="283.27400000000034" y="246.18599999999992" as="targetPoint" />
          </mxGeometry>
        </mxCell>
        <mxCell id="bL0ik9NKwifECW42rk_7-161" value="" style="endArrow=none;html=1;strokeWidth=2;fillColor=#fa6800;strokeColor=#C73500;exitX=1;exitY=0.5;exitDx=0;exitDy=0;entryX=0;entryY=0.5;entryDx=0;entryDy=0;edgeStyle=elbowEdgeStyle;elbow=vertical;" parent="1" source="Z7xoSQg9jsAGD2zMsVOJ-194" target="Z7xoSQg9jsAGD2zMsVOJ-198" edge="1">
          <mxGeometry width="50" height="50" relative="1" as="geometry">
            <mxPoint x="264.0500000000002" y="247" as="sourcePoint" />
            <mxPoint x="282.0500000000002" y="220" as="targetPoint" />
          </mxGeometry>
        </mxCell>
        <mxCell id="bL0ik9NKwifECW42rk_7-162" value="" style="endArrow=none;html=1;strokeWidth=2;fillColor=#fa6800;strokeColor=#C73500;exitX=1;exitY=0.5;exitDx=0;exitDy=0;entryX=0.011;entryY=0.552;entryDx=0;entryDy=0;entryPerimeter=0;edgeStyle=elbowEdgeStyle;elbow=vertical;" parent="1" source="Z7xoSQg9jsAGD2zMsVOJ-197" target="Z7xoSQg9jsAGD2zMsVOJ-204" edge="1">
          <mxGeometry width="50" height="50" relative="1" as="geometry">
            <mxPoint x="383.4380000000001" y="215.02800000000002" as="sourcePoint" />
            <mxPoint x="402.7140000000004" y="214.87400000000002" as="targetPoint" />
          </mxGeometry>
        </mxCell>
        <mxCell id="bL0ik9NKwifECW42rk_7-163" value="60" style="rounded=0;whiteSpace=wrap;html=1;strokeWidth=1;fillColor=none;perimeterSpacing=1;strokeColor=#FF8000;" parent="1" vertex="1">
          <mxGeometry x="513.05" y="200" width="100" height="20" as="geometry" />
        </mxCell>
        <mxCell id="bL0ik9NKwifECW42rk_7-164" value="" style="endArrow=none;html=1;strokeWidth=2;fillColor=#fa6800;strokeColor=#C73500;exitX=1;exitY=0.5;exitDx=0;exitDy=0;entryX=0;entryY=0.5;entryDx=0;entryDy=0;edgeStyle=elbowEdgeStyle;elbow=vertical;" parent="1" source="bL0ik9NKwifECW42rk_7-159" target="bL0ik9NKwifECW42rk_7-163" edge="1">
          <mxGeometry width="50" height="50" relative="1" as="geometry">
            <mxPoint x="503.04999999999995" y="275.0000000000001" as="sourcePoint" />
            <mxPoint x="523.1719999999998" y="248.144" as="targetPoint" />
          </mxGeometry>
        </mxCell>
        <mxCell id="bL0ik9NKwifECW42rk_7-167" value="90" style="rounded=0;whiteSpace=wrap;html=1;strokeWidth=1;fillColor=none;perimeterSpacing=1;strokeColor=#FF8000;" parent="1" vertex="1">
          <mxGeometry x="634" y="255" width="100" height="20" as="geometry" />
        </mxCell>
        <mxCell id="bL0ik9NKwifECW42rk_7-168" value="" style="endArrow=none;html=1;strokeWidth=2;fillColor=#fa6800;strokeColor=#C73500;exitX=0;exitY=0.5;exitDx=0;exitDy=0;entryX=1;entryY=0.5;entryDx=0;entryDy=0;edgeStyle=elbowEdgeStyle;elbow=vertical;" parent="1" source="bL0ik9NKwifECW42rk_7-167" target="Z7xoSQg9jsAGD2zMsVOJ-204" edge="1">
          <mxGeometry width="50" height="50" relative="1" as="geometry">
            <mxPoint x="640" y="266.42999999999995" as="sourcePoint" />
            <mxPoint x="660.1220000000001" y="239.57399999999984" as="targetPoint" />
          </mxGeometry>
        </mxCell>
        <mxCell id="Si2Vcu1wcxDljG82Q7qR-11" value="Background" parent="0" />
        <mxCell id="Si2Vcu1wcxDljG82Q7qR-12" value="" style="points=[];aspect=fixed;html=1;align=center;shadow=0;dashed=0;image;image=img/lib/allied_telesis/computer_and_terminals/Server_Desktop.svg;fillColor=none;" vertex="1" parent="Si2Vcu1wcxDljG82Q7qR-11">
          <mxGeometry x="-184.54999999999995" y="648.22" width="42.599999999999994" height="54" as="geometry" />
        </mxCell>
        <mxCell id="Si2Vcu1wcxDljG82Q7qR-13" value="(3) Escalonador Proposto" style="text;html=1;strokeColor=none;fillColor=none;align=center;verticalAlign=middle;whiteSpace=wrap;rounded=0;" vertex="1" parent="Si2Vcu1wcxDljG82Q7qR-11">
          <mxGeometry x="-196.83" y="580" width="94.55" height="20" as="geometry" />
        </mxCell>
        <mxCell id="Si2Vcu1wcxDljG82Q7qR-14" value="" style="shadow=0;dashed=0;html=1;strokeColor=none;fillColor=#505050;labelPosition=center;verticalLabelPosition=bottom;verticalAlign=top;outlineConnect=0;align=center;shape=mxgraph.office.databases.database_cube;" vertex="1" parent="Si2Vcu1wcxDljG82Q7qR-11">
          <mxGeometry x="-173.05" y="521" width="47" height="52" as="geometry" />
        </mxCell>
        <mxCell id="Si2Vcu1wcxDljG82Q7qR-15" value="" style="html=1;whiteSpace=wrap;aspect=fixed;shape=isoCube;backgroundOutline=1;" vertex="1" parent="Si2Vcu1wcxDljG82Q7qR-11">
          <mxGeometry x="-170.05" y="362.78" width="33.5" height="37.22" as="geometry" />
        </mxCell>
        <mxCell id="Si2Vcu1wcxDljG82Q7qR-16" value="" style="html=1;whiteSpace=wrap;aspect=fixed;shape=isoCube;backgroundOutline=1;" vertex="1" parent="Si2Vcu1wcxDljG82Q7qR-11">
          <mxGeometry x="-168.3" y="347.78" width="29.6" height="32.89" as="geometry" />
        </mxCell>
        <mxCell id="Si2Vcu1wcxDljG82Q7qR-17" value="" style="whiteSpace=wrap;html=1;shape=mxgraph.basic.isocube;isoAngle=15;" vertex="1" parent="Si2Vcu1wcxDljG82Q7qR-11">
          <mxGeometry x="-180.55" y="228" width="50" height="50" as="geometry" />
        </mxCell>
        <mxCell id="Si2Vcu1wcxDljG82Q7qR-18" value="(2) K8&#39;s réplica Master" style="text;html=1;strokeColor=none;fillColor=none;align=center;verticalAlign=middle;whiteSpace=wrap;rounded=0;" vertex="1" parent="Si2Vcu1wcxDljG82Q7qR-11">
          <mxGeometry x="-199.02" y="405.78" width="89.45" height="20" as="geometry" />
        </mxCell>
        <mxCell id="Si2Vcu1wcxDljG82Q7qR-19" value="(1) K8&#39;s sem réplica" style="text;html=1;strokeColor=none;fillColor=none;align=center;verticalAlign=middle;whiteSpace=wrap;rounded=0;" vertex="1" parent="Si2Vcu1wcxDljG82Q7qR-11">
          <mxGeometry x="-190.55" y="288" width="70" height="20" as="geometry" />
        </mxCell>
        <mxCell id="Si2Vcu1wcxDljG82Q7qR-20" value="" style="line;strokeWidth=2;html=1;container=0;" vertex="1" parent="Si2Vcu1wcxDljG82Q7qR-11">
          <mxGeometry x="-110" y="570" width="731" height="10" as="geometry" />
        </mxCell>
        <mxCell id="Si2Vcu1wcxDljG82Q7qR-21" value="" style="endArrow=block;html=1;strokeWidth=1;endFill=1;entryX=0.077;entryY=0.5;entryDx=0;entryDy=0;entryPerimeter=0;dashed=1;" edge="1" parent="Si2Vcu1wcxDljG82Q7qR-11">
          <mxGeometry width="50" height="50" relative="1" as="geometry">
            <mxPoint x="140" y="521" as="sourcePoint" />
            <mxPoint x="140.07999999999993" y="576" as="targetPoint" />
          </mxGeometry>
        </mxCell>
        <mxCell id="Si2Vcu1wcxDljG82Q7qR-23" value="" style="endArrow=block;html=1;strokeWidth=1;endFill=1;" edge="1" parent="Si2Vcu1wcxDljG82Q7qR-11">
          <mxGeometry width="50" height="50" relative="1" as="geometry">
            <mxPoint x="20" y="574" as="sourcePoint" />
            <mxPoint x="20" y="520" as="targetPoint" />
          </mxGeometry>
        </mxCell>
        <mxCell id="Si2Vcu1wcxDljG82Q7qR-25" value="100" style="text;html=1;align=center;verticalAlign=middle;resizable=0;points=[];autosize=1;" vertex="1" parent="Si2Vcu1wcxDljG82Q7qR-11">
          <mxGeometry y="500" width="40" height="20" as="geometry" />
        </mxCell>
        <mxCell id="Si2Vcu1wcxDljG82Q7qR-26" value="45" style="text;html=1;align=center;verticalAlign=middle;resizable=0;points=[];autosize=1;" vertex="1" parent="Si2Vcu1wcxDljG82Q7qR-11">
          <mxGeometry x="124" y="501" width="30" height="20" as="geometry" />
        </mxCell>
        <mxCell id="Si2Vcu1wcxDljG82Q7qR-27" value="" style="endArrow=block;html=1;strokeWidth=1;endFill=1;" edge="1" parent="Si2Vcu1wcxDljG82Q7qR-11">
          <mxGeometry width="50" height="50" relative="1" as="geometry">
            <mxPoint x="260" y="575" as="sourcePoint" />
            <mxPoint x="260" y="521" as="targetPoint" />
          </mxGeometry>
        </mxCell>
        <mxCell id="Si2Vcu1wcxDljG82Q7qR-31" value="85" style="text;html=1;align=center;verticalAlign=middle;resizable=0;points=[];autosize=1;" vertex="1" parent="Si2Vcu1wcxDljG82Q7qR-11">
          <mxGeometry x="244" y="500" width="30" height="20" as="geometry" />
        </mxCell>
        <mxCell id="Si2Vcu1wcxDljG82Q7qR-33" value="" style="endArrow=block;html=1;strokeWidth=1;endFill=1;" edge="1" parent="Si2Vcu1wcxDljG82Q7qR-11">
          <mxGeometry width="50" height="50" relative="1" as="geometry">
            <mxPoint x="380" y="574" as="sourcePoint" />
            <mxPoint x="380" y="520" as="targetPoint" />
          </mxGeometry>
        </mxCell>
        <mxCell id="Si2Vcu1wcxDljG82Q7qR-35" value="" style="endArrow=block;html=1;strokeWidth=1;endFill=1;" edge="1" parent="Si2Vcu1wcxDljG82Q7qR-11">
          <mxGeometry width="50" height="50" relative="1" as="geometry">
            <mxPoint x="500" y="573.9999999999998" as="sourcePoint" />
            <mxPoint x="500" y="520" as="targetPoint" />
          </mxGeometry>
        </mxCell>
        <mxCell id="Si2Vcu1wcxDljG82Q7qR-36" value="60" style="text;html=1;align=center;verticalAlign=middle;resizable=0;points=[];autosize=1;" vertex="1" parent="Si2Vcu1wcxDljG82Q7qR-11">
          <mxGeometry x="365" y="500" width="30" height="20" as="geometry" />
        </mxCell>
        <mxCell id="Si2Vcu1wcxDljG82Q7qR-37" value="90" style="text;html=1;align=center;verticalAlign=middle;resizable=0;points=[];autosize=1;" vertex="1" parent="Si2Vcu1wcxDljG82Q7qR-11">
          <mxGeometry x="485" y="500" width="30" height="20" as="geometry" />
        </mxCell>
        <mxCell id="Si2Vcu1wcxDljG82Q7qR-39" value="" style="endArrow=block;html=1;strokeWidth=1;endFill=1;" edge="1" parent="Si2Vcu1wcxDljG82Q7qR-11">
          <mxGeometry width="50" height="50" relative="1" as="geometry">
            <mxPoint x="620" y="573.9999999999998" as="sourcePoint" />
            <mxPoint x="620" y="520" as="targetPoint" />
          </mxGeometry>
        </mxCell>
        <mxCell id="Si2Vcu1wcxDljG82Q7qR-40" value="11" style="text;html=1;align=center;verticalAlign=middle;resizable=0;points=[];autosize=1;" vertex="1" parent="Si2Vcu1wcxDljG82Q7qR-11">
          <mxGeometry x="604" y="500" width="30" height="20" as="geometry" />
        </mxCell>
        <mxCell id="Si2Vcu1wcxDljG82Q7qR-41" value="" style="line;strokeWidth=2;html=1;container=0;" vertex="1" parent="Si2Vcu1wcxDljG82Q7qR-11">
          <mxGeometry x="-110" y="390" width="734" height="10" as="geometry" />
        </mxCell>
        <mxCell id="Si2Vcu1wcxDljG82Q7qR-42" value="" style="endArrow=block;html=1;strokeWidth=1;endFill=1;entryX=0.077;entryY=0.5;entryDx=0;entryDy=0;entryPerimeter=0;" edge="1" parent="Si2Vcu1wcxDljG82Q7qR-11">
          <mxGeometry width="50" height="50" relative="1" as="geometry">
            <mxPoint x="143" y="341" as="sourcePoint" />
            <mxPoint x="143.07999999999993" y="396" as="targetPoint" />
          </mxGeometry>
        </mxCell>
        <mxCell id="Si2Vcu1wcxDljG82Q7qR-43" value="" style="endArrow=block;html=1;strokeWidth=1;endFill=1;" edge="1" parent="Si2Vcu1wcxDljG82Q7qR-11">
          <mxGeometry width="50" height="50" relative="1" as="geometry">
            <mxPoint x="23" y="394" as="sourcePoint" />
            <mxPoint x="23" y="340" as="targetPoint" />
          </mxGeometry>
        </mxCell>
        <mxCell id="Si2Vcu1wcxDljG82Q7qR-45" value="100" style="text;html=1;align=center;verticalAlign=middle;resizable=0;points=[];autosize=1;" vertex="1" parent="Si2Vcu1wcxDljG82Q7qR-11">
          <mxGeometry x="3" y="320" width="40" height="20" as="geometry" />
        </mxCell>
        <mxCell id="Si2Vcu1wcxDljG82Q7qR-46" value="" style="endArrow=block;html=1;strokeWidth=1;endFill=1;" edge="1" parent="Si2Vcu1wcxDljG82Q7qR-11">
          <mxGeometry width="50" height="50" relative="1" as="geometry">
            <mxPoint x="263" y="395" as="sourcePoint" />
            <mxPoint x="263" y="341" as="targetPoint" />
          </mxGeometry>
        </mxCell>
        <mxCell id="Si2Vcu1wcxDljG82Q7qR-50" value="50" style="text;html=1;align=center;verticalAlign=middle;resizable=0;points=[];autosize=1;" vertex="1" parent="Si2Vcu1wcxDljG82Q7qR-11">
          <mxGeometry x="247" y="320" width="30" height="20" as="geometry" />
        </mxCell>
        <mxCell id="Si2Vcu1wcxDljG82Q7qR-54" value="" style="endArrow=block;html=1;strokeWidth=1;endFill=1;" edge="1" parent="Si2Vcu1wcxDljG82Q7qR-11">
          <mxGeometry width="50" height="50" relative="1" as="geometry">
            <mxPoint x="383" y="394" as="sourcePoint" />
            <mxPoint x="383" y="340" as="targetPoint" />
          </mxGeometry>
        </mxCell>
        <mxCell id="Si2Vcu1wcxDljG82Q7qR-58" value="" style="endArrow=block;html=1;strokeWidth=1;endFill=1;" edge="1" parent="Si2Vcu1wcxDljG82Q7qR-11">
          <mxGeometry width="50" height="50" relative="1" as="geometry">
            <mxPoint x="503" y="393.9999999999998" as="sourcePoint" />
            <mxPoint x="503" y="340" as="targetPoint" />
          </mxGeometry>
        </mxCell>
        <mxCell id="Si2Vcu1wcxDljG82Q7qR-59" value="80" style="text;html=1;align=center;verticalAlign=middle;resizable=0;points=[];autosize=1;" vertex="1" parent="Si2Vcu1wcxDljG82Q7qR-11">
          <mxGeometry x="368" y="320" width="30" height="20" as="geometry" />
        </mxCell>
        <mxCell id="Si2Vcu1wcxDljG82Q7qR-60" value="60" style="text;html=1;align=center;verticalAlign=middle;resizable=0;points=[];autosize=1;" vertex="1" parent="Si2Vcu1wcxDljG82Q7qR-11">
          <mxGeometry x="488" y="320" width="30" height="20" as="geometry" />
        </mxCell>
        <mxCell id="Si2Vcu1wcxDljG82Q7qR-62" value="" style="endArrow=block;html=1;strokeWidth=1;endFill=1;" edge="1" parent="Si2Vcu1wcxDljG82Q7qR-11">
          <mxGeometry width="50" height="50" relative="1" as="geometry">
            <mxPoint x="623" y="393.9999999999998" as="sourcePoint" />
            <mxPoint x="623" y="340" as="targetPoint" />
          </mxGeometry>
        </mxCell>
        <mxCell id="Si2Vcu1wcxDljG82Q7qR-63" value="91" style="text;html=1;align=center;verticalAlign=middle;resizable=0;points=[];autosize=1;" vertex="1" parent="Si2Vcu1wcxDljG82Q7qR-11">
          <mxGeometry x="607" y="320" width="30" height="20" as="geometry" />
        </mxCell>
        <mxCell id="Si2Vcu1wcxDljG82Q7qR-64" value="" style="line;strokeWidth=2;html=1;container=0;" vertex="1" parent="Si2Vcu1wcxDljG82Q7qR-11">
          <mxGeometry x="-110" y="275" width="855" height="10" as="geometry" />
        </mxCell>
        <mxCell id="Si2Vcu1wcxDljG82Q7qR-65" value="" style="endArrow=block;html=1;strokeWidth=1;endFill=1;entryX=0.077;entryY=0.5;entryDx=0;entryDy=0;entryPerimeter=0;" edge="1" parent="Si2Vcu1wcxDljG82Q7qR-11">
          <mxGeometry width="50" height="50" relative="1" as="geometry">
            <mxPoint x="143.05" y="225.99999999999977" as="sourcePoint" />
            <mxPoint x="143.12999999999994" y="281.0000000000002" as="targetPoint" />
          </mxGeometry>
        </mxCell>
        <mxCell id="Si2Vcu1wcxDljG82Q7qR-66" value="" style="endArrow=block;html=1;strokeWidth=1;endFill=1;" edge="1" parent="Si2Vcu1wcxDljG82Q7qR-11">
          <mxGeometry width="50" height="50" relative="1" as="geometry">
            <mxPoint x="23.05000000000001" y="279.0000000000002" as="sourcePoint" />
            <mxPoint x="23.05000000000001" y="224.99999999999977" as="targetPoint" />
          </mxGeometry>
        </mxCell>
        <mxCell id="Si2Vcu1wcxDljG82Q7qR-68" value="100" style="text;html=1;align=center;verticalAlign=middle;resizable=0;points=[];autosize=1;" vertex="1" parent="Si2Vcu1wcxDljG82Q7qR-11">
          <mxGeometry x="3.0500000000000114" y="205" width="40" height="20" as="geometry" />
        </mxCell>
        <mxCell id="Si2Vcu1wcxDljG82Q7qR-74" value="" style="endArrow=block;html=1;strokeWidth=1;endFill=1;" edge="1" parent="Si2Vcu1wcxDljG82Q7qR-11">
          <mxGeometry width="50" height="50" relative="1" as="geometry">
            <mxPoint x="383.04999999999995" y="279.0000000000002" as="sourcePoint" />
            <mxPoint x="383.04999999999995" y="224.99999999999977" as="targetPoint" />
          </mxGeometry>
        </mxCell>
        <mxCell id="Si2Vcu1wcxDljG82Q7qR-77" value="" style="endArrow=block;html=1;strokeWidth=1;endFill=1;" edge="1" parent="Si2Vcu1wcxDljG82Q7qR-11">
          <mxGeometry width="50" height="50" relative="1" as="geometry">
            <mxPoint x="503.04999999999995" y="278.9999999999998" as="sourcePoint" />
            <mxPoint x="503.04999999999995" y="224.99999999999977" as="targetPoint" />
          </mxGeometry>
        </mxCell>
        <mxCell id="Si2Vcu1wcxDljG82Q7qR-80" value="" style="endArrow=block;html=1;strokeWidth=1;endFill=1;" edge="1" parent="Si2Vcu1wcxDljG82Q7qR-11">
          <mxGeometry width="50" height="50" relative="1" as="geometry">
            <mxPoint x="623.05" y="278.9999999999998" as="sourcePoint" />
            <mxPoint x="623.05" y="224.99999999999977" as="targetPoint" />
          </mxGeometry>
        </mxCell>
        <mxCell id="Si2Vcu1wcxDljG82Q7qR-81" value="61" style="text;html=1;align=center;verticalAlign=middle;resizable=0;points=[];autosize=1;" vertex="1" parent="Si2Vcu1wcxDljG82Q7qR-11">
          <mxGeometry x="607.05" y="205" width="30" height="20" as="geometry" />
        </mxCell>
        <mxCell id="Si2Vcu1wcxDljG82Q7qR-85" value="10 &lt;i&gt;Workers&lt;/i&gt; (W)&lt;br&gt;1 &lt;i&gt;Scheduler&lt;/i&gt;/W" style="rounded=0;whiteSpace=wrap;html=1;dashed=1;fillColor=none;strokeWidth=1;align=center;dashPattern=1 2;" vertex="1" parent="Si2Vcu1wcxDljG82Q7qR-11">
          <mxGeometry x="-194.55" y="470" width="90" height="40" as="geometry" />
        </mxCell>
        <mxCell id="Si2Vcu1wcxDljG82Q7qR-86" value="100 J&lt;br&gt;10 w" style="rounded=0;whiteSpace=wrap;html=1;dashed=1;fillColor=none;strokeWidth=2;align=center;" vertex="1" parent="Si2Vcu1wcxDljG82Q7qR-11">
          <mxGeometry x="1.1899999999999977" y="461" width="37.62" height="40" as="geometry" />
        </mxCell>
        <mxCell id="Si2Vcu1wcxDljG82Q7qR-87" value="" style="endArrow=none;html=1;strokeWidth=1;" edge="1" parent="Si2Vcu1wcxDljG82Q7qR-11">
          <mxGeometry width="50" height="50" relative="1" as="geometry">
            <mxPoint x="4.809999999999945" y="482" as="sourcePoint" />
            <mxPoint x="34.809999999999945" y="482" as="targetPoint" />
            <Array as="points">
              <mxPoint x="4.810000000000002" y="482" />
            </Array>
          </mxGeometry>
        </mxCell>
        <mxCell id="Si2Vcu1wcxDljG82Q7qR-88" value="50 J&lt;br&gt;10 w" style="rounded=0;whiteSpace=wrap;html=1;dashed=1;fillColor=none;strokeWidth=2;align=center;" vertex="1" parent="Si2Vcu1wcxDljG82Q7qR-11">
          <mxGeometry x="120.19" y="460" width="37.62" height="40" as="geometry" />
        </mxCell>
        <mxCell id="Si2Vcu1wcxDljG82Q7qR-89" value="" style="endArrow=none;html=1;strokeWidth=1;" edge="1" parent="Si2Vcu1wcxDljG82Q7qR-11">
          <mxGeometry width="50" height="50" relative="1" as="geometry">
            <mxPoint x="123.80999999999995" y="481" as="sourcePoint" />
            <mxPoint x="153.80999999999995" y="481" as="targetPoint" />
            <Array as="points">
              <mxPoint x="123.81" y="481" />
            </Array>
          </mxGeometry>
        </mxCell>
        <mxCell id="Si2Vcu1wcxDljG82Q7qR-90" value="85 J&lt;br&gt;9 w" style="rounded=0;whiteSpace=wrap;html=1;dashed=1;fillColor=none;strokeWidth=2;align=center;" vertex="1" parent="Si2Vcu1wcxDljG82Q7qR-11">
          <mxGeometry x="239.38" y="460" width="37.62" height="40" as="geometry" />
        </mxCell>
        <mxCell id="Si2Vcu1wcxDljG82Q7qR-91" value="" style="endArrow=none;html=1;strokeWidth=1;" edge="1" parent="Si2Vcu1wcxDljG82Q7qR-11">
          <mxGeometry width="50" height="50" relative="1" as="geometry">
            <mxPoint x="244" y="480.86" as="sourcePoint" />
            <mxPoint x="274" y="480.86" as="targetPoint" />
            <Array as="points">
              <mxPoint x="244" y="480.86" />
            </Array>
          </mxGeometry>
        </mxCell>
        <mxCell id="Si2Vcu1wcxDljG82Q7qR-92" value="60 J&lt;br&gt;9 w" style="rounded=0;whiteSpace=wrap;html=1;dashed=1;fillColor=none;strokeWidth=2;align=center;" vertex="1" parent="Si2Vcu1wcxDljG82Q7qR-11">
          <mxGeometry x="360.38" y="461" width="37.62" height="40" as="geometry" />
        </mxCell>
        <mxCell id="Si2Vcu1wcxDljG82Q7qR-93" value="" style="endArrow=none;html=1;strokeWidth=1;" edge="1" parent="Si2Vcu1wcxDljG82Q7qR-11">
          <mxGeometry width="50" height="50" relative="1" as="geometry">
            <mxPoint x="365" y="481.86" as="sourcePoint" />
            <mxPoint x="395" y="481.86" as="targetPoint" />
            <Array as="points">
              <mxPoint x="365" y="481.86" />
            </Array>
          </mxGeometry>
        </mxCell>
        <mxCell id="Si2Vcu1wcxDljG82Q7qR-94" value="90 J&lt;br&gt;9 w" style="rounded=0;whiteSpace=wrap;html=1;dashed=1;fillColor=none;strokeWidth=2;align=center;" vertex="1" parent="Si2Vcu1wcxDljG82Q7qR-11">
          <mxGeometry x="480" y="460" width="37.62" height="40" as="geometry" />
        </mxCell>
        <mxCell id="Si2Vcu1wcxDljG82Q7qR-95" value="" style="endArrow=none;html=1;strokeWidth=1;" edge="1" parent="Si2Vcu1wcxDljG82Q7qR-11">
          <mxGeometry width="50" height="50" relative="1" as="geometry">
            <mxPoint x="484.62" y="480.86" as="sourcePoint" />
            <mxPoint x="514.62" y="480.86" as="targetPoint" />
            <Array as="points">
              <mxPoint x="484.62" y="480.86" />
            </Array>
          </mxGeometry>
        </mxCell>
        <mxCell id="Si2Vcu1wcxDljG82Q7qR-96" value="1 J&lt;br&gt;9 w" style="rounded=0;whiteSpace=wrap;html=1;dashed=1;fillColor=none;strokeWidth=2;align=center;" vertex="1" parent="Si2Vcu1wcxDljG82Q7qR-11">
          <mxGeometry x="599.38" y="460" width="37.62" height="40" as="geometry" />
        </mxCell>
        <mxCell id="Si2Vcu1wcxDljG82Q7qR-97" value="" style="endArrow=none;html=1;strokeWidth=1;" edge="1" parent="Si2Vcu1wcxDljG82Q7qR-11">
          <mxGeometry width="50" height="50" relative="1" as="geometry">
            <mxPoint x="603.9999999999999" y="480.86" as="sourcePoint" />
            <mxPoint x="633.9999999999999" y="480.86" as="targetPoint" />
            <Array as="points">
              <mxPoint x="604" y="480.86" />
            </Array>
          </mxGeometry>
        </mxCell>
        <mxCell id="Si2Vcu1wcxDljG82Q7qR-98" value="1" style="text;html=1;align=center;verticalAlign=middle;resizable=0;points=[];autosize=1;" vertex="1" parent="Si2Vcu1wcxDljG82Q7qR-11">
          <mxGeometry x="13" y="278" width="20" height="20" as="geometry" />
        </mxCell>
        <mxCell id="Si2Vcu1wcxDljG82Q7qR-99" value="2" style="text;html=1;align=center;verticalAlign=middle;resizable=0;points=[];autosize=1;" vertex="1" parent="Si2Vcu1wcxDljG82Q7qR-11">
          <mxGeometry x="133.05" y="278" width="20" height="20" as="geometry" />
        </mxCell>
        <mxCell id="Si2Vcu1wcxDljG82Q7qR-100" value="3" style="text;html=1;align=center;verticalAlign=middle;resizable=0;points=[];autosize=1;" vertex="1" parent="Si2Vcu1wcxDljG82Q7qR-11">
          <mxGeometry x="251.99999999999994" y="278" width="20" height="20" as="geometry" />
        </mxCell>
        <mxCell id="Si2Vcu1wcxDljG82Q7qR-101" value="" style="edgeStyle=elbowEdgeStyle;rounded=0;orthogonalLoop=1;jettySize=auto;html=1;fontSize=10;strokeWidth=2;" edge="1" parent="Si2Vcu1wcxDljG82Q7qR-11" source="Si2Vcu1wcxDljG82Q7qR-102" target="Si2Vcu1wcxDljG82Q7qR-174">
          <mxGeometry relative="1" as="geometry" />
        </mxCell>
        <mxCell id="Si2Vcu1wcxDljG82Q7qR-102" value="4" style="text;html=1;align=center;verticalAlign=middle;resizable=0;points=[];autosize=1;" vertex="1" parent="Si2Vcu1wcxDljG82Q7qR-11">
          <mxGeometry x="373.04999999999995" y="278" width="20" height="20" as="geometry" />
        </mxCell>
        <mxCell id="Si2Vcu1wcxDljG82Q7qR-103" value="5" style="text;html=1;align=center;verticalAlign=middle;resizable=0;points=[];autosize=1;" vertex="1" parent="Si2Vcu1wcxDljG82Q7qR-11">
          <mxGeometry x="493" y="278" width="20" height="20" as="geometry" />
        </mxCell>
        <mxCell id="Si2Vcu1wcxDljG82Q7qR-104" value="6" style="text;html=1;align=center;verticalAlign=middle;resizable=0;points=[];autosize=1;" vertex="1" parent="Si2Vcu1wcxDljG82Q7qR-11">
          <mxGeometry x="612" y="278" width="20" height="20" as="geometry" />
        </mxCell>
        <mxCell id="Si2Vcu1wcxDljG82Q7qR-105" value="" style="rounded=0;whiteSpace=wrap;html=1;strokeColor=#000000;strokeWidth=1;fillColor=none;gradientColor=none;" vertex="1" parent="Si2Vcu1wcxDljG82Q7qR-11">
          <mxGeometry x="432" y="120" width="417" height="60" as="geometry" />
        </mxCell>
        <mxCell id="Si2Vcu1wcxDljG82Q7qR-106" value="" style="endArrow=classic;html=1;strokeWidth=1;" edge="1" parent="Si2Vcu1wcxDljG82Q7qR-11" target="Si2Vcu1wcxDljG82Q7qR-107">
          <mxGeometry width="50" height="50" relative="1" as="geometry">
            <mxPoint x="585.05" y="170.24" as="sourcePoint" />
            <mxPoint x="585.05" y="130.07870967741934" as="targetPoint" />
          </mxGeometry>
        </mxCell>
        <mxCell id="Si2Vcu1wcxDljG82Q7qR-107" value="&lt;i&gt;Commit&lt;/i&gt;" style="text;html=1;strokeColor=none;fillColor=none;align=center;verticalAlign=middle;whiteSpace=wrap;rounded=0;" vertex="1" parent="Si2Vcu1wcxDljG82Q7qR-11">
          <mxGeometry x="565.05" y="120.08" width="40" height="20" as="geometry" />
        </mxCell>
        <mxCell id="Si2Vcu1wcxDljG82Q7qR-108" value="" style="endArrow=classic;html=1;strokeWidth=1;" edge="1" parent="Si2Vcu1wcxDljG82Q7qR-11">
          <mxGeometry width="50" height="50" relative="1" as="geometry">
            <mxPoint x="739.19" y="140.07999999999998" as="sourcePoint" />
            <mxPoint x="739.27" y="170.07999999999998" as="targetPoint" />
            <Array as="points">
              <mxPoint x="739.19" y="150.07999999999998" />
            </Array>
          </mxGeometry>
        </mxCell>
        <mxCell id="Si2Vcu1wcxDljG82Q7qR-109" value="&lt;i&gt;Crash&lt;/i&gt;" style="text;html=1;strokeColor=none;fillColor=none;align=center;verticalAlign=middle;whiteSpace=wrap;rounded=0;" vertex="1" parent="Si2Vcu1wcxDljG82Q7qR-11">
          <mxGeometry x="719" y="120.08" width="40" height="20" as="geometry" />
        </mxCell>
        <mxCell id="Si2Vcu1wcxDljG82Q7qR-110" value="" style="rounded=0;whiteSpace=wrap;html=1;dashed=1;strokeColor=#000000;strokeWidth=2;fillColor=none;gradientColor=none;" vertex="1" parent="Si2Vcu1wcxDljG82Q7qR-11">
          <mxGeometry x="784" y="140.07999999999998" width="35" height="30" as="geometry" />
        </mxCell>
        <mxCell id="Si2Vcu1wcxDljG82Q7qR-111" value="&lt;i&gt;Workload&lt;/i&gt;" style="text;html=1;strokeColor=none;fillColor=none;align=center;verticalAlign=middle;whiteSpace=wrap;rounded=0;dashed=1;dashPattern=1 2;" vertex="1" parent="Si2Vcu1wcxDljG82Q7qR-11">
          <mxGeometry x="782.05" y="120" width="40" height="20" as="geometry" />
        </mxCell>
        <mxCell id="Si2Vcu1wcxDljG82Q7qR-112" value="&lt;i&gt;N&lt;/i&gt;" style="rounded=0;whiteSpace=wrap;html=1;strokeWidth=1;fillColor=none;" vertex="1" parent="Si2Vcu1wcxDljG82Q7qR-11">
          <mxGeometry x="451.3799999999999" y="145.16000000000003" width="100" height="20" as="geometry" />
        </mxCell>
        <mxCell id="Si2Vcu1wcxDljG82Q7qR-113" value="&lt;i&gt;Jobs&lt;/i&gt;" style="text;html=1;align=center;verticalAlign=middle;resizable=0;points=[];autosize=1;" vertex="1" parent="Si2Vcu1wcxDljG82Q7qR-11">
          <mxGeometry x="481.3799999999999" y="120.16" width="40" height="20" as="geometry" />
        </mxCell>
        <mxCell id="Si2Vcu1wcxDljG82Q7qR-114" value="" style="endArrow=classic;html=1;strokeWidth=1;dashed=1;" edge="1" parent="Si2Vcu1wcxDljG82Q7qR-11">
          <mxGeometry width="50" height="50" relative="1" as="geometry">
            <mxPoint x="661.8600000000001" y="139.99999999999994" as="sourcePoint" />
            <mxPoint x="661.94" y="169.99999999999994" as="targetPoint" />
            <Array as="points">
              <mxPoint x="661.8600000000001" y="150" />
            </Array>
          </mxGeometry>
        </mxCell>
        <mxCell id="Si2Vcu1wcxDljG82Q7qR-115" value="&lt;i&gt;Crash &lt;/i&gt;parcial" style="text;html=1;strokeColor=none;fillColor=none;align=center;verticalAlign=middle;whiteSpace=wrap;rounded=0;" vertex="1" parent="Si2Vcu1wcxDljG82Q7qR-11">
          <mxGeometry x="622" y="120.16" width="80" height="20" as="geometry" />
        </mxCell>
        <mxCell id="Si2Vcu1wcxDljG82Q7qR-116" value="1" style="text;html=1;align=center;verticalAlign=middle;resizable=0;points=[];autosize=1;" vertex="1" parent="Si2Vcu1wcxDljG82Q7qR-11">
          <mxGeometry x="13" y="394" width="20" height="20" as="geometry" />
        </mxCell>
        <mxCell id="Si2Vcu1wcxDljG82Q7qR-117" value="2" style="text;html=1;align=center;verticalAlign=middle;resizable=0;points=[];autosize=1;" vertex="1" parent="Si2Vcu1wcxDljG82Q7qR-11">
          <mxGeometry x="133.05" y="394" width="20" height="20" as="geometry" />
        </mxCell>
        <mxCell id="Si2Vcu1wcxDljG82Q7qR-118" value="3" style="text;html=1;align=center;verticalAlign=middle;resizable=0;points=[];autosize=1;" vertex="1" parent="Si2Vcu1wcxDljG82Q7qR-11">
          <mxGeometry x="253.04999999999995" y="394" width="20" height="20" as="geometry" />
        </mxCell>
        <mxCell id="Si2Vcu1wcxDljG82Q7qR-119" value="4" style="text;html=1;align=center;verticalAlign=middle;resizable=0;points=[];autosize=1;" vertex="1" parent="Si2Vcu1wcxDljG82Q7qR-11">
          <mxGeometry x="373.04999999999995" y="394" width="20" height="20" as="geometry" />
        </mxCell>
        <mxCell id="Si2Vcu1wcxDljG82Q7qR-120" value="5" style="text;html=1;align=center;verticalAlign=middle;resizable=0;points=[];autosize=1;" vertex="1" parent="Si2Vcu1wcxDljG82Q7qR-11">
          <mxGeometry x="493" y="394" width="20" height="20" as="geometry" />
        </mxCell>
        <mxCell id="Si2Vcu1wcxDljG82Q7qR-121" value="6" style="text;html=1;align=center;verticalAlign=middle;resizable=0;points=[];autosize=1;" vertex="1" parent="Si2Vcu1wcxDljG82Q7qR-11">
          <mxGeometry x="612" y="394" width="20" height="20" as="geometry" />
        </mxCell>
        <mxCell id="Si2Vcu1wcxDljG82Q7qR-122" value="1" style="text;html=1;align=center;verticalAlign=middle;resizable=0;points=[];autosize=1;" vertex="1" parent="Si2Vcu1wcxDljG82Q7qR-11">
          <mxGeometry x="10" y="574" width="20" height="20" as="geometry" />
        </mxCell>
        <mxCell id="Si2Vcu1wcxDljG82Q7qR-123" value="2" style="text;html=1;align=center;verticalAlign=middle;resizable=0;points=[];autosize=1;" vertex="1" parent="Si2Vcu1wcxDljG82Q7qR-11">
          <mxGeometry x="130.05" y="574" width="20" height="20" as="geometry" />
        </mxCell>
        <mxCell id="Si2Vcu1wcxDljG82Q7qR-124" value="3" style="text;html=1;align=center;verticalAlign=middle;resizable=0;points=[];autosize=1;" vertex="1" parent="Si2Vcu1wcxDljG82Q7qR-11">
          <mxGeometry x="250.04999999999995" y="574" width="20" height="20" as="geometry" />
        </mxCell>
        <mxCell id="Si2Vcu1wcxDljG82Q7qR-125" value="4" style="text;html=1;align=center;verticalAlign=middle;resizable=0;points=[];autosize=1;" vertex="1" parent="Si2Vcu1wcxDljG82Q7qR-11">
          <mxGeometry x="370.04999999999995" y="574" width="20" height="20" as="geometry" />
        </mxCell>
        <mxCell id="Si2Vcu1wcxDljG82Q7qR-126" value="5" style="text;html=1;align=center;verticalAlign=middle;resizable=0;points=[];autosize=1;" vertex="1" parent="Si2Vcu1wcxDljG82Q7qR-11">
          <mxGeometry x="490" y="574" width="20" height="20" as="geometry" />
        </mxCell>
        <mxCell id="Si2Vcu1wcxDljG82Q7qR-127" value="6" style="text;html=1;align=center;verticalAlign=middle;resizable=0;points=[];autosize=1;" vertex="1" parent="Si2Vcu1wcxDljG82Q7qR-11">
          <mxGeometry x="609" y="574" width="20" height="20" as="geometry" />
        </mxCell>
        <mxCell id="Si2Vcu1wcxDljG82Q7qR-130" value="&lt;span style=&quot;white-space: normal&quot;&gt;Cada &lt;i&gt;Job&lt;/i&gt; requisita &lt;i&gt;N&lt;/i&gt;% de recurso do Data Center e o tempo de processamento é de 1 salto de escalonamento&lt;/span&gt;" style="rounded=0;whiteSpace=wrap;html=1;fillColor=none;" vertex="1" parent="Si2Vcu1wcxDljG82Q7qR-11">
          <mxGeometry x="202" y="120.16" width="220" height="60" as="geometry" />
        </mxCell>
        <mxCell id="Si2Vcu1wcxDljG82Q7qR-131" value="" style="points=[];aspect=fixed;html=1;align=center;shadow=0;dashed=0;image;image=img/lib/allied_telesis/computer_and_terminals/Server_Desktop.svg;fillColor=none;" vertex="1" parent="Si2Vcu1wcxDljG82Q7qR-11">
          <mxGeometry x="-170.07999999999998" y="668.72" width="31.56" height="40" as="geometry" />
        </mxCell>
        <mxCell id="Si2Vcu1wcxDljG82Q7qR-132" value="Utilização&lt;br&gt;Recurso do &lt;br&gt;Data Center" style="text;html=1;align=center;verticalAlign=middle;resizable=0;points=[];autosize=1;" vertex="1" parent="Si2Vcu1wcxDljG82Q7qR-11">
          <mxGeometry x="-201" y="702.22" width="80" height="50" as="geometry" />
        </mxCell>
        <mxCell id="Si2Vcu1wcxDljG82Q7qR-133" value="" style="shape=image;html=1;verticalAlign=top;verticalLabelPosition=bottom;labelBackgroundColor=#ffffff;imageAspect=0;aspect=fixed;image=https://cdn4.iconfinder.com/data/icons/pictype-free-vector-icons/16/sync-128.png" vertex="1" parent="Si2Vcu1wcxDljG82Q7qR-11">
          <mxGeometry x="257.95" y="295.22" width="8.22" height="8.22" as="geometry" />
        </mxCell>
        <mxCell id="Si2Vcu1wcxDljG82Q7qR-134" value="" style="line;strokeWidth=2;html=1;container=0;" vertex="1" parent="Si2Vcu1wcxDljG82Q7qR-11">
          <mxGeometry x="-111" y="710.72" width="960" height="10" as="geometry" />
        </mxCell>
        <mxCell id="Si2Vcu1wcxDljG82Q7qR-135" value="" style="endArrow=none;html=1;exitX=0.141;exitY=0.571;exitDx=0;exitDy=0;exitPerimeter=0;" edge="1" parent="Si2Vcu1wcxDljG82Q7qR-11">
          <mxGeometry width="50" height="50" relative="1" as="geometry">
            <mxPoint x="21.86099999999986" y="716.4300000000001" as="sourcePoint" />
            <mxPoint x="22.23" y="648.72" as="targetPoint" />
          </mxGeometry>
        </mxCell>
        <mxCell id="Si2Vcu1wcxDljG82Q7qR-136" value="" style="endArrow=none;html=1;exitX=0.141;exitY=0.571;exitDx=0;exitDy=0;exitPerimeter=0;" edge="1" parent="Si2Vcu1wcxDljG82Q7qR-11">
          <mxGeometry width="50" height="50" relative="1" as="geometry">
            <mxPoint x="141.00099999999964" y="716.4300000000001" as="sourcePoint" />
            <mxPoint x="141.37" y="648.72" as="targetPoint" />
          </mxGeometry>
        </mxCell>
        <mxCell id="Si2Vcu1wcxDljG82Q7qR-137" value="" style="endArrow=none;html=1;exitX=0.141;exitY=0.571;exitDx=0;exitDy=0;exitPerimeter=0;" edge="1" parent="Si2Vcu1wcxDljG82Q7qR-11">
          <mxGeometry width="50" height="50" relative="1" as="geometry">
            <mxPoint x="261.001" y="716.4300000000001" as="sourcePoint" />
            <mxPoint x="261.3699999999999" y="648.72" as="targetPoint" />
          </mxGeometry>
        </mxCell>
        <mxCell id="Si2Vcu1wcxDljG82Q7qR-138" value="" style="endArrow=none;html=1;exitX=0.141;exitY=0.571;exitDx=0;exitDy=0;exitPerimeter=0;" edge="1" parent="Si2Vcu1wcxDljG82Q7qR-11">
          <mxGeometry width="50" height="50" relative="1" as="geometry">
            <mxPoint x="381.001" y="716.43" as="sourcePoint" />
            <mxPoint x="381.3699999999999" y="648.72" as="targetPoint" />
          </mxGeometry>
        </mxCell>
        <mxCell id="Si2Vcu1wcxDljG82Q7qR-139" value="" style="endArrow=none;html=1;exitX=0.141;exitY=0.571;exitDx=0;exitDy=0;exitPerimeter=0;" edge="1" parent="Si2Vcu1wcxDljG82Q7qR-11">
          <mxGeometry width="50" height="50" relative="1" as="geometry">
            <mxPoint x="501.8110000000002" y="716.4300000000001" as="sourcePoint" />
            <mxPoint x="502.1799999999999" y="648.7199999999998" as="targetPoint" />
          </mxGeometry>
        </mxCell>
        <mxCell id="Si2Vcu1wcxDljG82Q7qR-140" value="1" style="text;html=1;align=center;verticalAlign=middle;resizable=0;points=[];autosize=1;" vertex="1" parent="Si2Vcu1wcxDljG82Q7qR-11">
          <mxGeometry x="12" y="717.22" width="20" height="20" as="geometry" />
        </mxCell>
        <mxCell id="Si2Vcu1wcxDljG82Q7qR-141" value="2" style="text;html=1;align=center;verticalAlign=middle;resizable=0;points=[];autosize=1;" vertex="1" parent="Si2Vcu1wcxDljG82Q7qR-11">
          <mxGeometry x="132.05" y="717.22" width="20" height="20" as="geometry" />
        </mxCell>
        <mxCell id="Si2Vcu1wcxDljG82Q7qR-142" value="3" style="text;html=1;align=center;verticalAlign=middle;resizable=0;points=[];autosize=1;" vertex="1" parent="Si2Vcu1wcxDljG82Q7qR-11">
          <mxGeometry x="250.99999999999994" y="717.22" width="20" height="20" as="geometry" />
        </mxCell>
        <mxCell id="Si2Vcu1wcxDljG82Q7qR-143" value="4" style="text;html=1;align=center;verticalAlign=middle;resizable=0;points=[];autosize=1;" vertex="1" parent="Si2Vcu1wcxDljG82Q7qR-11">
          <mxGeometry x="372.04999999999995" y="717.22" width="20" height="20" as="geometry" />
        </mxCell>
        <mxCell id="Si2Vcu1wcxDljG82Q7qR-144" value="5" style="text;html=1;align=center;verticalAlign=middle;resizable=0;points=[];autosize=1;" vertex="1" parent="Si2Vcu1wcxDljG82Q7qR-11">
          <mxGeometry x="492" y="717.22" width="20" height="20" as="geometry" />
        </mxCell>
        <mxCell id="Si2Vcu1wcxDljG82Q7qR-145" value="6" style="text;html=1;align=center;verticalAlign=middle;resizable=0;points=[];autosize=1;" vertex="1" parent="Si2Vcu1wcxDljG82Q7qR-11">
          <mxGeometry x="611" y="717.22" width="20" height="20" as="geometry" />
        </mxCell>
        <mxCell id="Si2Vcu1wcxDljG82Q7qR-146" value="(Crash de 1 &lt;i&gt;Worker&lt;/i&gt;)" style="text;html=1;align=center;verticalAlign=middle;resizable=0;points=[];autosize=1;" vertex="1" parent="Si2Vcu1wcxDljG82Q7qR-11">
          <mxGeometry x="84" y="586" width="120" height="20" as="geometry" />
        </mxCell>
        <mxCell id="Si2Vcu1wcxDljG82Q7qR-147" value="(Crash do &lt;i&gt;Scheduler&lt;/i&gt; Master)" style="text;html=1;align=center;verticalAlign=middle;resizable=0;points=[];autosize=1;" vertex="1" parent="Si2Vcu1wcxDljG82Q7qR-11">
          <mxGeometry x="58.05" y="405.78" width="170" height="20" as="geometry" />
        </mxCell>
        <mxCell id="Si2Vcu1wcxDljG82Q7qR-148" value="(Crash do &lt;i&gt;Scheduler&lt;/i&gt;)" style="text;html=1;align=center;verticalAlign=middle;resizable=0;points=[];autosize=1;" vertex="1" parent="Si2Vcu1wcxDljG82Q7qR-11">
          <mxGeometry x="80" y="288.22" width="130" height="20" as="geometry" />
        </mxCell>
        <mxCell id="Si2Vcu1wcxDljG82Q7qR-157" value="80" style="text;html=1;align=center;verticalAlign=middle;resizable=0;points=[];autosize=1;" vertex="1" parent="Si2Vcu1wcxDljG82Q7qR-11">
          <mxGeometry x="487.61999999999995" y="207" width="30" height="20" as="geometry" />
        </mxCell>
        <mxCell id="Si2Vcu1wcxDljG82Q7qR-158" value="" style="endArrow=block;html=1;strokeWidth=1;endFill=1;" edge="1" parent="Si2Vcu1wcxDljG82Q7qR-11">
          <mxGeometry width="50" height="50" relative="1" as="geometry">
            <mxPoint x="744.0000000000002" y="279.9999999999998" as="sourcePoint" />
            <mxPoint x="744.0000000000002" y="225.99999999999977" as="targetPoint" />
          </mxGeometry>
        </mxCell>
        <mxCell id="Si2Vcu1wcxDljG82Q7qR-161" value="90" style="text;html=1;align=center;verticalAlign=middle;resizable=0;points=[];autosize=1;" vertex="1" parent="Si2Vcu1wcxDljG82Q7qR-11">
          <mxGeometry x="730" y="206" width="30" height="20" as="geometry" />
        </mxCell>
        <mxCell id="Si2Vcu1wcxDljG82Q7qR-162" value="" style="endArrow=none;html=1;exitX=0.141;exitY=0.571;exitDx=0;exitDy=0;exitPerimeter=0;" edge="1" parent="Si2Vcu1wcxDljG82Q7qR-11">
          <mxGeometry width="50" height="50" relative="1" as="geometry">
            <mxPoint x="621.0010000000001" y="715.9300000000001" as="sourcePoint" />
            <mxPoint x="621.3699999999998" y="648.2199999999998" as="targetPoint" />
          </mxGeometry>
        </mxCell>
        <mxCell id="Si2Vcu1wcxDljG82Q7qR-163" value="" style="endArrow=none;html=1;exitX=0.141;exitY=0.571;exitDx=0;exitDy=0;exitPerimeter=0;" edge="1" parent="Si2Vcu1wcxDljG82Q7qR-11">
          <mxGeometry width="50" height="50" relative="1" as="geometry">
            <mxPoint x="744.0010000000002" y="714.9300000000001" as="sourcePoint" />
            <mxPoint x="744.3699999999999" y="647.2199999999998" as="targetPoint" />
          </mxGeometry>
        </mxCell>
        <mxCell id="Si2Vcu1wcxDljG82Q7qR-164" value="7" style="text;html=1;align=center;verticalAlign=middle;resizable=0;points=[];autosize=1;" vertex="1" parent="Si2Vcu1wcxDljG82Q7qR-11">
          <mxGeometry x="734" y="278" width="20" height="20" as="geometry" />
        </mxCell>
        <mxCell id="Si2Vcu1wcxDljG82Q7qR-165" value="7" style="text;html=1;align=center;verticalAlign=middle;resizable=0;points=[];autosize=1;" vertex="1" parent="Si2Vcu1wcxDljG82Q7qR-11">
          <mxGeometry x="734" y="717.22" width="20" height="20" as="geometry" />
        </mxCell>
        <mxCell id="Si2Vcu1wcxDljG82Q7qR-166" value="(1) K8&#39;s sem réplica 0%&#xa;(2) K8&#39;s réplica master 0%&#xa;(3) Escalonador proposto 0%" style="text;strokeColor=none;fillColor=none;align=left;verticalAlign=top;spacingLeft=4;spacingRight=4;overflow=hidden;rotatable=0;points=[[0,0.5],[1,0.5]];portConstraint=eastwest;fontSize=10;" vertex="1" parent="Si2Vcu1wcxDljG82Q7qR-11">
          <mxGeometry x="-120.55" y="652.72" width="180" height="49.5" as="geometry" />
        </mxCell>
        <mxCell id="Si2Vcu1wcxDljG82Q7qR-167" value="(1) 100%&#xa;(2) 100%&#xa;(3) 100%" style="text;strokeColor=none;fillColor=none;align=left;verticalAlign=top;spacingLeft=4;spacingRight=4;overflow=hidden;rotatable=0;points=[[0,0.5],[1,0.5]];portConstraint=eastwest;" vertex="1" parent="Si2Vcu1wcxDljG82Q7qR-11">
          <mxGeometry x="52.05" y="652.72" width="60" height="49.5" as="geometry" />
        </mxCell>
        <mxCell id="Si2Vcu1wcxDljG82Q7qR-168" value="(1) 45%&#xa;(2) 0%&#xa;(3) 0%" style="text;strokeColor=none;fillColor=none;align=left;verticalAlign=top;spacingLeft=4;spacingRight=4;overflow=hidden;rotatable=0;points=[[0,0.5],[1,0.5]];portConstraint=eastwest;" vertex="1" parent="Si2Vcu1wcxDljG82Q7qR-11">
          <mxGeometry x="172.05" y="650.47" width="60" height="49.5" as="geometry" />
        </mxCell>
        <mxCell id="Si2Vcu1wcxDljG82Q7qR-169" value="(1) 85%&#xa;(2) 50%&#xa;(3) 0%" style="text;strokeColor=none;fillColor=none;align=left;verticalAlign=top;spacingLeft=4;spacingRight=4;overflow=hidden;rotatable=0;points=[[0,0.5],[1,0.5]];portConstraint=eastwest;" vertex="1" parent="Si2Vcu1wcxDljG82Q7qR-11">
          <mxGeometry x="292.05" y="652.72" width="60" height="49.5" as="geometry" />
        </mxCell>
        <mxCell id="Si2Vcu1wcxDljG82Q7qR-170" value="(1) 60%&#xa;(2) 80%&#xa;(3) 50%" style="text;strokeColor=none;fillColor=none;align=left;verticalAlign=top;spacingLeft=4;spacingRight=4;overflow=hidden;rotatable=0;points=[[0,0.5],[1,0.5]];portConstraint=eastwest;" vertex="1" parent="Si2Vcu1wcxDljG82Q7qR-11">
          <mxGeometry x="412.05" y="652.72" width="60" height="49.5" as="geometry" />
        </mxCell>
        <mxCell id="Si2Vcu1wcxDljG82Q7qR-171" value="(1) 90%&#xa;(2) 60%&#xa;(3) 80%" style="text;strokeColor=none;fillColor=none;align=left;verticalAlign=top;spacingLeft=4;spacingRight=4;overflow=hidden;rotatable=0;points=[[0,0.5],[1,0.5]];portConstraint=eastwest;" vertex="1" parent="Si2Vcu1wcxDljG82Q7qR-11">
          <mxGeometry x="532.05" y="652.72" width="60" height="49.5" as="geometry" />
        </mxCell>
        <mxCell id="Si2Vcu1wcxDljG82Q7qR-172" value="(1) 1%&#xa;(2) 91%&#xa;(3) 61%" style="text;strokeColor=none;fillColor=none;align=left;verticalAlign=top;spacingLeft=4;spacingRight=4;overflow=hidden;rotatable=0;points=[[0,0.5],[1,0.5]];portConstraint=eastwest;" vertex="1" parent="Si2Vcu1wcxDljG82Q7qR-11">
          <mxGeometry x="653" y="652.72" width="60" height="49.5" as="geometry" />
        </mxCell>
        <mxCell id="Si2Vcu1wcxDljG82Q7qR-173" value="&#xa;(3) 90%" style="text;strokeColor=none;fillColor=none;align=left;verticalAlign=top;spacingLeft=4;spacingRight=4;overflow=hidden;rotatable=0;points=[[0,0.5],[1,0.5]];portConstraint=eastwest;" vertex="1" parent="Si2Vcu1wcxDljG82Q7qR-11">
          <mxGeometry x="771.05" y="652.72" width="60" height="49.5" as="geometry" />
        </mxCell>
        <mxCell id="Si2Vcu1wcxDljG82Q7qR-174" value="50" style="text;html=1;align=center;verticalAlign=middle;resizable=0;points=[];autosize=1;" vertex="1" parent="Si2Vcu1wcxDljG82Q7qR-11">
          <mxGeometry x="367.99999999999994" y="205" width="30" height="20" as="geometry" />
        </mxCell>
      </root>
    </mxGraphModel>
  </diagram>
</mxfile>
